<svg xmlns="http://www.w3.org/2000/svg" width="50" height="35" version="1"><path d="M3.608 24.025c-.329.8.182 2.71 1.919 3.128 2.099.506 3.784-.83 3.701-3.6l-.14-15.212c-.016-1.81.46-2.692.777-3.21.844-1.385 2.308-1.724 2.535-1.178.129.311.313 1.682-1.439 3.705-1.367 1.578-6.491 2.957-7.699 7.073-1.049 3.58 2.118 7.151 5.642 6.958 3.558-.194 4.594-3.68 3.254-5.77-3.237-5.052-9.822.644-4.671 3.684-.505-.6-1.204-1.91-.926-2.835 1.019-3.387 7.05.022 3.957 3.18-1.225 1.25-4.182.935-5.541-.932-1.14-1.565-1.153-3.9.773-5.339 2.609-1.948 5.548-3.573 6.888-6.703 1.584-3.7-.352-7.242-2.758-3.777-.807 1.162-1.274 2.4-1.262 4.96l.073 15.522c.006 1.111-.449 2.545-1.582 3.012-.56.232-2.35.1-2.611-.783" fill-opacity=".196"/><g transform="scale(.40656) rotate(11.699 70.461 50.954)" fill="#ca1c42"><path d="M11.804 71.411c-.392 2.092 1.79 6.437 6.181 6.579 5.309.171 10.18-4.258 8.793-10.928l-7.787-37.48c-.906-4.362-.123-8.01.23-8.7 1.616-3.159 3.098-2.609 3.516-2.47.295.178 2.116.28 2.639 5.262 1.59-8.197-5.357-15.4-9.88-6.065-1.284 2.649-2.374 7.244-1.037 13.398l8.105 37.308c.58 2.671 1.499 6.082-.997 7.773-1.236.838-5.61 1.414-6.68-.585"/><ellipse transform="rotate(-178.925)" cx="-16.82" cy="-71.492" rx="3.733" ry="3.797"/></g><g font-style="italic" font-weight="400" font-size="24" font-family="Times New Roman" letter-spacing="0" word-spacing="0" fill="#505050"><path d="M21.21 19.486q0 1.908-.793 3.778-.783 1.87-2.192 2.964-1.408 1.094-2.738 1.094-1.359 0-2.221-1.106-.854-1.12-.854-2.888 0-1.87.834-3.753.843-1.882 2.241-2.976 1.409-1.094 2.718-1.094 1.31 0 2.153 1.106.853 1.107.853 2.875zm-1.646-.877q0-1.183-.456-1.807-.447-.636-1.16-.636-1.459 0-2.689 2.684-1.22 2.672-1.22 5.318 0 1.208.476 1.87.476.648 1.2.648 1.4 0 2.62-2.658 1.23-2.672 1.23-5.42z" style="line-height:1.25;-inkscape-font-specification:'Times New Roman, Italic'"/><path d="M29.463 15.81l-1.726 7.582q-.386 1.691-.386 2.137 0 .229.06.343.069.102.178.102.168 0 .367-.19.208-.204 1.031-1.578l.298.292q-.784 1.59-1.607 2.34-.546.484-1.052.484-.386 0-.605-.28-.218-.28-.218-.725 0-.432.13-1.144.158-.942.902-4.097-1.686 3.55-2.827 4.898-1.13 1.348-2.103 1.348-.456 0-.774-.407-.317-.407-.317-1.03 0-.954.436-2.926l.863-3.93q.318-1.413.318-1.756 0-.153-.09-.254-.079-.115-.178-.115-.208 0-.417.19-.208.192-.942 1.413l-.307-.28q.743-1.476 1.577-2.175.634-.547 1.17-.547.367 0 .595.305.238.293.238.763 0 .687-.396 2.455l-.933 4.11q-.387 1.678-.387 2.124 0 .241.12.394.128.14.337.14.327 0 .853-.42.525-.42 1.398-1.857.883-1.45 1.448-2.71.576-1.272 1.22-4.032l.219-.967z" style="line-height:1.25;-inkscape-font-specification:'Times New Roman, Italic'"/><path d="M32.317 15.787l-1.18 5.506c1.237-2.366 2.183-3.923 2.837-4.669.662-.746 1.296-1.12 1.905-1.12.33 0 .602.14.813.42.218.28.328.645.328 1.095 0 .508-.096 1.187-.288 2.035l-1.21 5.355c-.14.62-.209.997-.209 1.132 0 .12.027.22.08.306.053.076.109.114.168.114.08 0 .176-.055.288-.165.35-.356.734-.9 1.15-1.628l.308.241c-.615 1.128-1.197 1.934-1.746 2.417-.383.33-.727.496-1.031.496a.693.693 0 0 1-.585-.292c-.146-.187-.219-.441-.219-.764 0-.407.113-1.106.338-2.098l1.15-5.114c.146-.636.218-1.132.218-1.488a.61.61 0 0 0-.128-.408.39.39 0 0 0-.318-.165c-.185 0-.407.102-.664.305-.49.382-.999 1.014-1.528 1.896-.529.873-1.088 1.993-1.676 3.358-.311.72-.569 1.51-.774 2.366l-.496 2.099H28.36l1.805-7.963c.48-1.938.773-3.307 2.152-3.267z" style="line-height:1.25;-inkscape-font-specification:'Times New Roman, Italic'"/><path d="M47.3 8.928l-3.412 15.01q-.278 1.222-.278 1.603 0 .128.08.242.089.115.178.115.129 0 .307-.166.338-.305 1.131-1.526l.337.267q-.714 1.272-1.448 2.06-.724.79-1.359.79-.337 0-.555-.306-.218-.305-.218-.865 0-.725.297-1.946l.387-1.578q-1.438 2.85-2.619 3.944-.813.75-1.557.75-.754 0-1.32-.852-.555-.865-.555-2.34 0-1.896.943-4.046.942-2.15 2.49-3.498 1.22-1.081 2.241-1.081.536 0 .923.28.386.28.763.928l.972-4.427q.11-.47.179-.75.119-.509.119-.84 0-.267-.149-.445-.208-.216-.535-.216-.229 0-.754.089v-.47zm-3.68 9.032q0-.814-.367-1.31-.367-.496-.932-.496-1.25 0-2.61 2.645-1.348 2.646-1.348 5.063 0 .954.327 1.463.327.496.784.496 1.031 0 2.589-2.862 1.557-2.862 1.557-5z" style="line-height:1.25;-inkscape-font-specification:'Times New Roman, Italic'"/></g><text style="line-height:1.25" x="5.827" y="72.435" font-weight="400" font-size="32.781" font-family="sans-serif" letter-spacing="0" word-spacing="0" fill="#505050" stroke-width=".82" transform="translate(0 -40)"><tspan x="5.827" y="72.435" style="-inkscape-font-specification:'Times New Roman, '" font-size="5.464" font-family="Times New Roman">Taipei sound map</tspan></text></svg>